<svg width="41" height="53" viewBox="0 0 41 53" fill="none" xmlns="http://www.w3.org/2000/svg">
<path d="M21.7991 2.11176C22.4458 1.76261 23.0412 1.32324 23.6817 0.963005C25.5707 -0.0993886 28.0088 -0.179407 30.0841 1.21006L37.052 5.87522C38.7473 7.01039 39.7648 8.9162 39.7648 10.9564V33.277C39.7648 38.167 34.31 41.079 30.2469 38.3582L23.279 33.6921C22.585 33.2274 21.6894 33.0505 20.9545 33.4474L20.7865 33.5381C20.1143 33.9012 19.6953 34.6038 19.6953 35.3678V46.6315C19.6953 51.5215 14.24 54.4335 10.1768 51.7126L3.2089 47.0466C1.51367 45.9113 0.496068 44.0056 0.496094 41.9654L0.496592 19.6458C0.496862 14.7561 5.95149 11.8442 10.0146 14.5646L16.982 19.2297C17.1114 19.3164 17.2369 19.4076 17.3583 19.503C18.018 20.0215 18.922 20.2356 19.6603 19.8368C20.2184 19.5355 20.5662 18.9524 20.5662 18.3182V14.1887C20.5662 12.3726 18.626 11.2152 17.0279 12.0782C15.8622 12.7076 14.4069 12.2727 13.7776 11.107L13.3725 10.3565C12.5195 8.77646 13.1088 6.8041 14.6888 5.951L21.7991 2.11176Z" fill="url(#paint0_linear_178_5625)"/>
<defs>
<linearGradient id="paint0_linear_178_5625" x1="42.1426" y1="2.16892" x2="3.01017" y2="41.1519" gradientUnits="userSpaceOnUse">
<stop offset="0.240385" stop-color="#2E3999"/>
<stop offset="0.778846" stop-color="#616FF5"/>
</linearGradient>
</defs>
</svg>
