<svg width="79" height="104" viewBox="0 0 79 104" fill="none" xmlns="http://www.w3.org/2000/svg">
<path d="M42.7743 4.14399C44.0432 3.45887 45.2116 2.59671 46.4684 1.88983C50.1751 -0.194866 54.9594 -0.351883 59.0317 2.37462L72.7046 11.5289C76.0312 13.7564 78.0277 17.4961 78.0278 21.4996V65.2984C78.0278 74.8939 67.324 80.6081 59.3511 75.2691L45.6782 66.1129C44.3165 65.2011 42.5589 64.854 41.117 65.6328L40.7874 65.8108C39.4682 66.5233 38.646 67.9019 38.646 69.4012V91.5035C38.646 101.099 27.9413 106.813 19.9683 101.474L6.29541 92.318C2.96893 90.0903 0.972118 86.3508 0.972168 82.3473L0.973145 38.5504C0.973676 28.9556 11.6771 23.2416 19.6499 28.5797L33.3218 37.734C33.5758 37.9041 33.822 38.083 34.0602 38.2702C35.3548 39.2877 37.1286 39.7077 38.5775 38.9253C39.6725 38.334 40.355 37.1898 40.355 35.9453V27.8422C40.355 24.2784 36.5479 22.0074 33.412 23.7007C31.1245 24.9358 28.2689 24.0825 27.0339 21.795L26.239 20.3223C24.5652 17.2219 25.7216 13.3516 28.822 11.6776L42.7743 4.14399Z" fill="url(#paint0_linear_17_235)"/>
<defs>
<linearGradient id="paint0_linear_17_235" x1="82.6936" y1="4.25616" x2="5.90544" y2="80.751" gradientUnits="userSpaceOnUse">
<stop offset="0.240385" stop-color="#036AD9"/>
<stop offset="0.692308" stop-color="#63D1FD"/>
</linearGradient>
</defs>
</svg>
